{
  "accessors": [
    {
      "bufferView": 2,
      "componentType": 5126,
      "count": 324,
      "max": [
        1.0,
        4.9478864669799805,
        1.0055853128433228
      ],
      "min": [
        -1.0,
        -9.135772705078125,
        -1.6874864101409912
      ],
      "type": "VEC3"
    },
    {
      "bufferView": 2,
      "byteOffset": 3888,
      "componentType": 5126,
      "count": 324,
      "max": [
        1.0,
        1.0,
        1.0
      ],
      "min": [
        -1.0,
        -1.0,
        -1.0
      ],
      "type": "VEC3"
    },
    {
      "bufferView": 1,
      "componentType": 5126,
      "count": 324,
      "max": [
        0.875,
        1.0
      ],
      "min": [
        0.125,
        0.0
      ],
      "type": "VEC2"
    },
    {
      "bufferView": 0,
      "componentType": 5125,
      "count": 666,
      "type": "SCALAR"
    },
    {
      "bufferView": 2,
      "byteOffset": 7776,
      "componentType": 5126,
      "count": 4,
      "max": [
        0.9762206077575684,
        2.0024306774139404,
        0.9628188014030457
      ],
      "min": [
        -0.9762206077575684,
        -0.6491713523864746,
        -0.9446328282356262
      ],
      "type": "VEC3"
    },
    {
      "bufferView": 2,
      "byteOffset": 7824,
      "componentType": 5126,
      "count": 4,
      "max": [
        0.0,
        0.583961546421051,
        0.8117813467979431
      ],
      "min": [
        0.0,
        0.583961546421051,
        0.8117813467979431
      ],
      "type": "VEC3"
    },
    {
      "bufferView": 1,
      "byteOffset": 2592,
      "componentType": 5126,
      "count": 4,
      "max": [
        0.6199917793273926,
        0.4950055181980133
      ],
      "min": [
        0.38000816106796265,
        0.2549944519996643
      ],
      "type": "VEC2"
    },
    {
      "bufferView": 0,
      "byteOffset": 2664,
      "componentType": 5125,
      "count": 6,
      "type": "SCALAR"
    },
    {
      "bufferView": 2,
      "byteOffset": 7872,
      "componentType": 5126,
      "count": 94,
      "max": [
        1.0,
        1.0,
        1.0
      ],
      "min": [
        -1.0,
        -3.04268479347229,
        -1.0612022876739502
      ],
      "type": "VEC3"
    },
    {
      "bufferView": 2,
      "byteOffset": 9000,
      "componentType": 5126,
      "count": 94,
      "max": [
        0.6420342922210693,
        0.7071068286895752,
        0.9480720162391663
      ],
      "min": [
        -0.6420342922210693,
        -0.9644187092781067,
        -0.9909085631370544
      ],
      "type": "VEC3"
    },
    {
      "bufferView": 1,
      "byteOffset": 2624,
      "componentType": 5126,
      "count": 94,
      "max": [
        0.875,
        1.0
      ],
      "min": [
        0.125,
        0.0
      ],
      "type": "VEC2"
    },
    {
      "bufferView": 0,
      "byteOffset": 2688,
      "componentType": 5125,
      "count": 420,
      "type": "SCALAR"
    }
  ],
  "asset": {
    "extras": {
      "author": "3david (https://sketchfab.com/deladavid)",
      "license": "CC-BY-4.0 (http://creativecommons.org/licenses/by/4.0/)",
      "source": "https://sketchfab.com/3d-models/computer-screen-e5cd149f7ca34a94a2704500d4d1bcfc",
      "title": "Computer Screen"
    },
    "generator": "Sketchfab-13.42.0",
    "version": "2.0"
  },
  "bufferViews": [
    {
      "buffer": 0,
      "byteLength": 4368,
      "name": "floatBufferViews",
      "target": 34963
    },
    {
      "buffer": 0,
      "byteLength": 3376,
      "byteOffset": 4368,
      "byteStride": 8,
      "name": "floatBufferViews",
      "target": 34962
    },
    {
      "buffer": 0,
      "byteLength": 10128,
      "byteOffset": 7744,
      "byteStride": 12,
      "name": "floatBufferViews",
      "target": 34962
    }
  ],
  "buffers": [
    {
      "byteLength": 17872,
      "uri": "scene.bin"
    }
  ],
  "materials": [
    {
      "doubleSided": true,
      "name": "Cube.341__0",
      "pbrMetallicRoughness": {
        "metallicFactor": 0.0,
        "roughnessFactor": 0.6
      }
    },
    {
      "doubleSided": true,
      "name": "Material.039",
      "pbrMetallicRoughness": {
        "baseColorFactor": [
          0.367222,
          0.367222,
          0.367222,
          1.0
        ],
        "metallicFactor": 0.0,
        "roughnessFactor": 0.9178866645166572
      }
    },
    {
      "doubleSided": true,
      "emissiveFactor": [
        1.0,
        1.0,
        1.0
      ],
      "name": "Material.074",
      "pbrMetallicRoughness": {
        "metallicFactor": 0.0,
        "roughnessFactor": 0.7763932022500211
      }
    }
  ],
  "meshes": [
    {
      "name": "Cube.340_Material.039_0",
      "primitives": [
        {
          "attributes": {
            "NORMAL": 1,
            "POSITION": 0,
            "TEXCOORD_0": 2
          },
          "indices": 3,
          "material": 1,
          "mode": 4
        }
      ]
    },
    {
      "name": "Cube.340_Material.074_0",
      "primitives": [
        {
          "attributes": {
            "NORMAL": 5,
            "POSITION": 4,
            "TEXCOORD_0": 6
          },
          "indices": 7,
          "material": 2,
          "mode": 4
        }
      ]
    },
    {
      "name": "Cube.341__0",
      "primitives": [
        {
          "attributes": {
            "NORMAL": 9,
            "POSITION": 8,
            "TEXCOORD_0": 10
          },
          "indices": 11,
          "material": 0,
          "mode": 4
        }
      ]
    }
  ],
  "nodes": [
    {
      "children": [
        1
      ],
      "matrix": [
        1.0,
        0.0,
        0.0,
        0.0,
        0.0,
        2.220446049250313e-16,
        -1.0,
        0.0,
        0.0,
        1.0,
        2.220446049250313e-16,
        0.0,
        0.0,
        0.0,
        0.0,
        1.0
      ],
      "name": "Sketchfab_model"
    },
    {
      "children": [
        2
      ],
      "matrix": [
        0.009999999776482582,
        0.0,
        0.0,
        0.0,
        0.0,
        0.0,
        0.009999999776482582,
        0.0,
        0.0,
        -0.009999999776482582,
        0.0,
        0.0,
        0.0,
        0.0,
        0.0,
        1.0
      ],
      "name": "0a1bee5376d94e53b1fe930d39b1255e.fbx"
    },
    {
      "children": [
        3,
        6
      ],
      "name": "RootNode"
    },
    {
      "children": [
        4,
        5
      ],
      "matrix": [
        80.54826064446117,
        -2.1634725134417237e-06,
        36.69489687387341,
        0.0,
        1.4442173696822345,
        -0.03058944389772162,
        -3.1701737052551304,
        0.0,
        0.15425018218887152,
        42.37269128149282,
        -0.3385891027288358,
        0.0,
        -149.4898681640625,
        341.86822509765625,
        33.435916900634766,
        1.0
      ],
      "name": "Cube.340"
    },
    {
      "mesh": 0,
      "name": "Cube.340_Material.039_0"
    },
    {
      "mesh": 1,
      "name": "Cube.340_Material.074_0"
    },
    {
      "children": [
        7
      ],
      "matrix": [
        7.05628543036037,
        8.401344877339714e-08,
        3.2061479952963885,
        0.0,
        0.5288983184434258,
        0.1472528154985487,
        -1.164031578211865,
        0.0,
        -0.20411570391199607,
        4.284295124832972,
        0.44923013840800996,
        0.0,
        -166.73280334472656,
        324.3567810058594,
        26.34095001220703,
        1.0
      ],
      "name": "Cube.341"
    },
    {
      "mesh": 2,
      "name": "Cube.341__0"
    }
  ],
  "scene": 0,
  "scenes": [
    {
      "name": "Sketchfab_Scene",
      "nodes": [
        0
      ]
    }
  ]
}
